<?xml version="1.0" encoding="utf-8"?>
<!-- Generator: Adobe Illustrator 19.0.0, SVG Export Plug-In . SVG Version: 6.00 Build 0)  -->
<svg version="1.1" id="Layer_1" xmlns="http://www.w3.org/2000/svg" xmlns:xlink="http://www.w3.org/1999/xlink" x="0px" y="0px"
	 viewBox="0 0 1168.8 792" style="enable-background:new 0 0 1168.8 792;" xml:space="preserve">
<style type="text/css">
	.st0{fill:#004935;}
	.st1{fill:#FFFFFF;}
	.st2{fill:#EFB122;}
	.st3{fill:#C42032;}
</style>
<path class="st0" d="M500.4,383.6c0,54.7,44.5,99.2,99.3,99.2c54.7,0,99.2-44.5,99.2-99.2c0-54.7-44.5-99.3-99.2-99.3
	C544.9,284.4,500.4,328.9,500.4,383.6z"/>
<path class="st1" d="M504,383.6c0,52.8,42.9,95.7,95.7,95.7c52.8,0,95.7-42.9,95.7-95.7c0-52.7-42.9-95.7-95.7-95.7
	C546.9,287.9,504,330.9,504,383.6z"/>
<path class="st2" d="M516.8,383.6c0-45.7,37.2-82.8,82.8-82.8c45.7,0,82.8,37.2,82.8,82.8c0,45.7-37.2,82.8-82.8,82.8
	C554,466.4,516.8,429.3,516.8,383.6z M507.5,383.6c0,50.8,41.3,92.2,92.2,92.2c50.8,0,92.2-41.4,92.2-92.2
	c0-50.8-41.4-92.2-92.2-92.2C548.8,291.4,507.5,332.8,507.5,383.6z"/>
<path class="st0" d="M597.6,350.1c-3.6-0.4-16.3,0.8-23.6,4.6c-7.3,3.8-14.4,10.9-18,19.9c-3.6,9-3.6,14.7-2.9,18.4
	c2,10.4,10,16.3,17.1,21.2c10.3,7.1,37.1,14.9,57.6,0c7.5-5.4,13.5-14.5,15.3-20.5c1.8-6,2.1-18-3.3-26.4
	c-5.5-8.4-14-20.2-35.3-24.3c-3.1-0.3-3.8,2.3-0.8,2.9c5.4,1.1,15.4,3.7,24.3,13.4c8.7,9.6,10.7,20.2,6.7,33.4
	c-3.7,10.5-9.2,20-31.7,23.5c-6.7,0.7-13.2-0.6-16.4-1.6c-3.1-1-18.2-8.4-21.5-17.1c-3.2-8.7,0.5-27.2,13.8-37.2
	c8.8-6.7,14.5-7.8,18.1-7.9C600.6,352.3,599.7,350.7,597.6,350.1z"/>
<path class="st3" d="M603.1,367.6c-0.4,1.9-2.2,1-4.5,1c-8,0-16.9,1.5-19,11.3c-1.6,7.2,4.6,18.6,8.9,20.6
	c14.1,6.6,36.4-7.1,37.6-14.9c1.2-7.5-4.4-15.7-9.7-17c-1.6-0.4-6.6-3.9,0.5-2.1c8.1,1.9,14.6,10,12.7,21.8
	c-0.8,4.9-4.9,11.4-9.9,13.7c-21.3,9.9-32.1,5.3-37,2.7c-7.7-4-12.7-13.3-10.9-21.4c1.3-6.1,3.3-8.5,8.1-11.6
	c6-3.9,13.8-6.1,20.2-4.6C601.3,367.3,603.3,366.8,603.1,367.6z"/>
<path class="st0" d="M612.3,364.8c-1.4-0.3-3.2,0.1-4.3,0.4c2.2-3.5,3.4-5.4,3.6-5.7c0.2-0.4,0-0.8-0.6-1.1c-1.4-0.8-3.1-1-5-0.6
	c-1.1,3.6-2.1,6.4-2.8,8.5l-0.5,0c0.4-2.5-1.3-4.9-4.2-5.7c-1.9-0.5-6.2-0.3-12.8,1.3c4.7,5,8.2,3.6,10,4.1c1.4,0.4,2.9,1.1,4.2,1.5
	c-0.8,0.4-1.6,0.9-2.4,1.3c-1.7,0.7-5.4-0.1-9.5,5.5c6.7,0.7,11,0.4,12.8-0.4c1-0.4,1.9-1.1,2.5-1.8c0.3-0.2,0.6-0.4,0.9-0.8
	c0.1-0.1,0.5-0.7,1.2-1.8c0.8,1.3,3.2,0.5,5.5,1.3c1.8,0.6,3,4.8,9.3,3.2C615.3,368.8,614.6,365.3,612.3,364.8z"/>
<path class="st0" d="M549.4,391.7c0,0-25.1,4.7-22.1,8.5C530.4,404.1,545,398.6,549.4,391.7z"/>
<path class="st0" d="M547.3,383.1c0,0-25.2-4.3-23.6,0.4C525.2,388.1,540.7,388,547.3,383.1z"/>
<path class="st0" d="M547,374.9c0,0-21-14.7-21.5-9.8C524.9,370,539,376.6,547,374.9z"/>
<path class="st0" d="M648.9,391.7c0,0,25.2,4.7,22.1,8.5C667.9,404.1,653.3,398.6,648.9,391.7z"/>
<path class="st0" d="M651,383.1c0,0,25.2-4.3,23.6,0.4C673.1,388.1,657.6,388,651,383.1z"/>
<path class="st0" d="M651.3,374.9c0,0,21-14.7,21.5-9.8C673.4,370,659.3,376.6,651.3,374.9z"/>
<path class="st3" d="M568.6,425.2c0.1-0.8-1-1.9-3.1-2.9c-2.3-1.2-4.6-1.8-8.4-2.3c-1.3,2.1-2.6,4.1-3.9,6.1
	c2.4,1.2,5.4,1.9,8.9,1.7C568.3,427.3,568.5,425.5,568.6,425.2z M572.1,427.5c-1.1,3.6-8.4,8.4-21.5,4.6c-2.1,1.9-3.5,3.5-4.6,4.5
	c-0.6,0.5-1.1,1-1.7,1.1c-0.6,0.2-1.4,0.1-2.4-0.8c-2.7-2.5-1.4-6,1-9.4c1.9-2.8,4.8-6,8.4-9.9c-0.1-1.4-0.1-2.9-0.2-4.3
	c0-0.5,0.4-0.8,0.9-0.6c5.7,1.8,10.1,3.2,13.5,5.1C570.5,420.6,573.2,423.6,572.1,427.5z"/>
<path class="st3" d="M607.8,454.8c0-0.8-1.3-1.4-3.6-1.5c-6,0-12.4-0.7-12.2-1.6c0.2-0.9,7.7-2.7,13.1-7.1c1.3-1,2-1.7,2.1-3.8
	c0.1-2.9-1.4-3.8-3.9-3.9c-5.7-0.3-11.2-1.1-14.6-0.1c-0.9,0.3-1.4,1-1.5,1.5c-0.1,0.6,0.2,1.2,0.7,1.3c1.2,0.4,3.7,0.7,7.2,1.3
	c2,0.4,3,0.9,2.9,1.6c-0.2,1-4.4,2.9-12.2,4.9c-3,0.7-4.7,0.9-5.3,3c-0.8,2.5,0,4.7,2.1,5.6c4.7,2,12,2.4,20.2,1.7
	C606.1,457.4,607.8,455.8,607.8,454.8z"/>
<path class="st3" d="M638.9,442.7c-0.4-0.7-1.9-0.6-4.1,0.5c-5.6,2.9-11.7,5.7-12,4.8c-0.3-0.9,5.7-6.3,8.8-12.7
	c0.8-1.5,1.1-2.5,0.2-4.3c-1.2-2.6-3.5-3.5-5.8-2.3c-8.1,3.9-10.3,4.9-12.4,6.8c-1,0.8-1.6,2-1.3,3c0.2,0.5,0.7,0.9,1.3,0.8
	c1.3-0.2,3.6-1.1,7.2-2.3c2-0.6,3.1-0.7,3.4,0c0.3,1-2.9,4.7-8.9,10.4c-2.4,2.2-3.7,3.2-3.2,5.4c0.6,2.8,2.5,4.5,4.7,4.1
	c5-0.7,12.6-3.9,19.7-10C639.3,444.3,639.3,443.6,638.9,442.7z"/>
<path class="st3" d="M648,425.8c-0.2,0.3-2.7,2.7-2.9,2.8c-0.6,0.4-0.9,0.1-1.1-0.4c0-0.1-0.6-1.7-0.8-2.5c-0.4-1.1-0.4-1.5-0.4-2
	c-0.2-1.4,0.8-2.5,1.2-2.9c0.5-0.4,1,0.4,1.1,0.5c0.8,0.9,2.7,3.4,2.8,3.6C648.1,425.1,648.2,425.5,648,425.8z M662.8,421.9
	c-0.4-0.1-0.8,0.2-1.2,0.5c-0.4,0.2-0.9,0.6-1.5,1c-5.3-2.4-10.4-5.6-15.1-9.2c-1.1-0.8-3.5,0.2-5.3,2.1c-2,2.1-2.1,5.5-1.1,10.6
	c1.4,7.6,3.7,13.1,5.5,15.1c0.7,0.8,1.7,1.3,2.8,0.3c1.6-1.4,1.8-1.3,1.4-4.2c-0.3-2.4-0.4-3.8-0.6-5.7c-0.2-1.4,0.4-2.5,0.7-2.8
	c0.4-0.4,1.9-2,2.3-1.9c1.3,0.5,3.3,1.4,5,1.5c3,0.1,3.8-0.3,6-3.5c1.1-1.6,1.8-3.2,1.3-3.8L662.8,421.9z"/>
<path class="st3" d="M645.6,359.1c-0.1-0.1-0.3-0.1-0.6-0.1h-0.4v1h0.5l0.5-0.1l0.3-0.5L645.6,359.1z M645,358.7
	c0.4,0,0.6,0,0.8,0.1c0.3,0.1,0.5,0.4,0.5,0.7l-0.3,0.6l-0.4,0.1l0.5,0.3l0.2,0.5v0.2l0,0.2l0,0.2l0,0h-0.5l0,0l0,0l0-0.1v-0.2
	c0-0.3-0.1-0.6-0.3-0.7l-0.6-0.1h-0.4v1.1H644v-2.9H645z M643.4,358.5c-0.5,0.4-0.7,1-0.7,1.6c0,0.6,0.2,1.2,0.7,1.6
	c0.4,0.4,1,0.7,1.6,0.7c0.6,0,1.2-0.2,1.6-0.7c0.4-0.5,0.7-1,0.7-1.6c0-0.6-0.2-1.2-0.7-1.6c-0.5-0.5-1-0.7-1.6-0.7
	C644.4,357.8,643.9,358.1,643.4,358.5z M646.9,362c-0.5,0.5-1.2,0.8-1.9,0.8c-0.7,0-1.4-0.3-1.9-0.8c-0.5-0.5-0.8-1.2-0.8-1.9
	c0-0.7,0.3-1.4,0.8-1.9c0.5-0.5,1.1-0.8,1.9-0.8c0.8,0,1.4,0.3,1.9,0.8c0.5,0.5,0.8,1.1,0.8,1.9C647.7,360.9,647.5,361.5,646.9,362z
	"/>
<path class="st3" d="M560.4,332.6c-0.4-0.5-0.7-1.1-1-1.6c-0.3-0.6-0.5-1.1-0.7-1.7c-0.2-0.6-0.4-1.1-0.6-1.6
	c-0.2-0.5-0.5-0.9-0.8-1.3c-0.6-0.7-1.3-0.9-2.7,0c-1.3,0.8-2.3,2.6-2.3,5.7c0,4.7,2.4,9.8,5.6,13.2c3.8,3.9,6.6,4.4,9.2,2.7
	c1-0.6,1.7-1.4,2.4-2.4c0.7-1.1,1.4-2.3,2.2-3.6c0.3-0.4,0.5-0.8,0.8-1.2c0.3-0.4,0.8-0.7,1.3-1c1-0.5,2.3-0.3,2.9,0.7
	c1.7,3.1-2.8,7.3-9.4,11.6c-5.3,3.6-10.1,4-15,0c-4.1-3.5-7.3-9.2-7.4-15.8c-0.1-5.7,2.9-11.1,7.6-13.9c6.3-3.8,12.7-1.3,16.1,4.2
	c1.8,2.9,0.8,5.5-2.4,7C564.1,334.8,561.8,334.3,560.4,332.6z"/>
<path class="st3" d="M607.4,319.5c0-0.6,0.1-1.2,0.3-1.8c0.1-0.6,0.3-1.1,0.5-1.7c0.2-0.5,0.4-1,0.5-1.6c0.1-0.5,0.2-1,0.2-1.4
	c0-0.9-0.4-1.4-1.9-1.6c-1.3-0.2-3.1,0.5-4.9,2.8c-2.7,3.5-3.9,8.7-3.6,13.3c0.3,5.3,2,7.4,4.8,7.7c1,0.1,1.9,0,3-0.4
	c1.1-0.4,2.3-0.9,3.6-1.5c0.4-0.2,0.8-0.3,1.3-0.4c0.5-0.1,1-0.1,1.5,0c1,0.2,1.8,1.1,1.7,2.2c-0.6,3.3-6.3,4.2-13.3,3.5
	c-5.7-0.5-9.1-3.4-10-9.6c-0.8-5.3,0.1-11.6,3.7-16.2c3.1-4.2,8.3-6.1,13.1-5.4c6.6,1,9.7,6.4,8.9,12.5c-0.4,3.2-2.7,4.6-5.8,4
	C608.7,323.4,607.4,321.7,607.4,319.5z"/>
<path class="st3" d="M585.1,325c0.1,0.3,0.4,2.6,1,7c0.7,4.2,0.9,6.5,0.9,6.7c0,1.1-0.3,2.3-1.5,2.6c-0.9,0.2-1.7-0.3-2.2-0.9
	c-0.5-0.6-1-1.4-1.6-2.4c-1.2-2.1-2.7-5.3-5.7-9.5l0-0.8c1.5-1.9,3.7-3.2,6.1-3.7C583.2,323.7,584.7,323.9,585.1,325z"/>
<path class="st3" d="M630.7,329.6c-0.1,0.3-1.7,2.4-4.3,6.5c-2.6,4-4,6.1-4.1,6.2c-0.8,0.9-1.9,1.8-2.9,1.3c-0.8-0.4-1-1.3-0.9-2.1
	c0-0.8,0.3-1.9,0.6-3.1c0.6-2.5,1.8-6.2,2.6-11.7l0.6-0.6c2.4-0.6,5-0.3,7.2,0.8C630.3,327.4,631.3,328.4,630.7,329.6z"/>
<path class="st3" d="M647.8,324.1l0.3-0.7l0-0.1l0-0.1l0.1-0.4c0.2-1.2-0.4-2.5-1.5-3.3c-1.7-1.2-4.1-0.9-5.3,0.6
	c-1,1.2-1,2.9,0,4.2c0,0.3-0.1,0.8-0.3,1.2c-0.5,0.8-1.3,1.2-1.6,1.4c-0.3,0.2-0.9,0.5-1,0.6l-0.1,0.7c0.1,0.3,0.9,0.8,1.5,0.6
	c1.1-0.2,2.9-0.9,3.1-0.9c0.3-0.1,2.1-0.9,3.1-1.7C646.6,325.8,647.3,325,647.8,324.1z"/>
<path class="st3" d="M575.1,311.7c2.3-0.8,4.3,0.2,4.9,2c0.4,1.1,0.2,3.6-0.7,7.2c-0.2,0.7-1.1,1-1.7,0.7c-3.1-2-4.8-4.1-5.2-5.1
	C571.9,314.6,572.8,312.5,575.1,311.7z"/>
<path class="st3" d="M632.7,312.5c2.2,1,2.9,3.2,2.2,4.8c-0.5,1.1-2.3,2.7-5.5,4.7c-0.6,0.4-1.5,0-1.7-0.7c-0.9-3.6-0.6-6.2-0.1-7.3
	C628.4,312.4,630.5,311.5,632.7,312.5z"/>
<path class="st3" d="M578.5,441.4c-0.2,0.3-1.8,2-4.6,5.4c-2.8,3.3-4.3,4.9-4.4,5.1c-0.8,0.7-1.9,1.3-2.9,0.5
	c-0.8-0.6-0.9-1.5-0.8-2.2c0.1-0.8,0.4-1.7,0.8-2.8c0.8-2.2,2.2-5.5,3.4-10.5l0.6-0.5c2.4-0.1,4.8,0.7,6.8,2.2
	C578.3,439.2,579.1,440.4,578.5,441.4z"/>
<path class="st3" d="M582,425.2c2.1,1.2,2.7,3.4,1.8,5c-0.6,1-2.6,2.5-5.9,4.2c-0.7,0.3-1.5-0.1-1.6-0.9c-0.5-3.7-0.1-6.3,0.5-7.2
	C577.7,424.7,579.9,424,582,425.2z"/>
<path class="st3" d="M638.9,346.6c0.3-3-1-7.1,0.6-10.3c3-5.6,11.6-3.2,14.2,2.3c1.4,2.9-0.1,4.4-1.1,4.6c-2.7,0.7-5.3-0.9-4.2-2.3
	c1.1-1.4,3.4-2.4,0.8-3.8c-2.8-1.5-3.9,1.2-4.5,5.6c-0.5,3.8-1.6,13.6-8.9,9.5c-3.2-1.8-5.4-5.9-4.9-7.7c0.3-0.9,1.3-1.2,2.5-0.6
	c0.8,0.4,1.3,1,1.6,1.6c0.3,0.6,0.7,2.2,0.8,2.9C636.4,349.7,638.6,349.5,638.9,346.6z"/>
</svg>
