<?xml version="1.0" encoding="utf-8"?>
<!-- Generator: Adobe Illustrator 19.0.0, SVG Export Plug-In . SVG Version: 6.00 Build 0)  -->
<svg version="1.1" id="Layer_1" xmlns="http://www.w3.org/2000/svg" xmlns:xlink="http://www.w3.org/1999/xlink" x="0px" y="0px"
	 viewBox="0 0 200 200" style="enable-background:new 0 0 200 200;" xml:space="preserve">
<style type="text/css">
	.st0{fill:#ED1C24;}
	.st1{fill:#AD322F;stroke:#FAE537;stroke-width:10.8313;stroke-linecap:round;stroke-linejoin:round;}
	.st2{fill:#FAE537;}
	.st3{fill:#AD322F;}
	.st4{fill:#B42B31;}
	.st5{fill:none;stroke:#AD322F;stroke-width:0.619;stroke-miterlimit:3.8637;}
	.st6{fill:none;stroke:#AD322F;stroke-width:0.4641;stroke-miterlimit:3.8637;}
	.st7{fill:#FFF200;}
	.st8{fill:#FFFFFF;}
	.st9{fill:#FFFFFF;stroke:#ED1C24;stroke-width:0.755;}
	.st10{fill:#FFFFFF;stroke:#ED1C24;stroke-miterlimit:3.8637;}
</style>
<g>
	<polygon class="st0" points="181.1,138.8 181.1,135.5 179.9,135.5 179.9,135 182.9,135 182.9,135.5 181.7,135.5 181.7,138.8 
		181.1,138.8 	"/>
	<path class="st0" d="M183.4,138.8V135h0.8l0.9,2.6c0.1,0.2,0.1,0.4,0.2,0.6c0-0.1,0.1-0.3,0.2-0.6l0.9-2.6h0.7v3.7h-0.5v-3.1
		l-1.1,3.1h-0.5l-1.1-3.2v3.2H183.4L183.4,138.8z"/>
	<path class="st1" d="M187.6,69.6c-0.5,2.7-2.6,4.7-5.5,5.7c1.9,0.6,3.9,1.1,5.9,1.7l-1,3.7c1.4,0.4,2.8,0.8,4.2,1.3l-10.3,32.4
		l2,0.5L179,122c0,0-0.2-0.1-0.6-0.2l-5.8,18.2c0,0-65-23.6-146-1.6l-2-5c-3.5-1.3-6-3.4-7.3-4.9c1.5-0.1,3.4-0.1,5.2-0.4l-2.5-6.3
		c-0.8,0.3-1.6,0.5-2.4,0.8l-2.8-3.8c0,0,1.2-0.4,3.6-1.2L8.9,92.9c0,0,1.2-0.8,3.7-2.1l-1-3c0,0,3.8-2.6,11-6.1l-3.1-10.3
		c-0.8-2.8-3-4.5-4.9-6l24.7-8c-0.6,0.6-0.9,1.9-1.1,3.4l4.2-1.3c-1.4,1.6-1.8,7.3-1.2,10.3l0.8,4.3c1.8-0.6,3.7-1.2,5.7-1.8
		c-0.9-0.8-1.6-1.8-1.8-3c-0.7-3.5,2.6-7.1,7.4-8c4.8-1,9.2,1.1,9.9,4.5c0.2,0.9,0.1,1.8-0.2,2.6c13.3-2.7,28.9-4.6,46.9-4.4
		c-0.5-1-0.8-2-0.7-3.1c0.2-4.2,4.7-7.5,10.2-7.3c3.6,0.1,6.7,1.7,8.3,3.9c2.3,1.5,3.8,3.8,3.7,6.3c0,0.5-0.1,0.9-0.2,1.4
		c12,1.2,24.8,3.3,38.4,6.5c-0.3-0.4-0.6-0.8-0.9-1.2c-2.4-1.9-3.7-4.5-3.3-7.2c0.7-4.3,5.8-7.1,11.4-6.1c3.6,0.6,6.4,2.6,7.9,5
		C186.8,64.2,188.1,66.9,187.6,69.6L187.6,69.6z"/>
	<path class="st2" d="M8.9,92.9c0,0,71.9-45.1,182.2-10.9l-18.5,57.9c0,0-65-23.6-146-1.6L8.9,92.9L8.9,92.9z"/>
	<path class="st2" d="M14.9,118.6c0,0,74.7-26.6,167.9-3.7L179,122c0,0-77.2-26.9-161.4,0.5L14.9,118.6L14.9,118.6z"/>
	<path class="st2" d="M17.7,67.1l24.6-7.6c-1.4,1.6-1.8,7.3-1.2,10.3l7.8,42.5c1,7.9,0.1,16.4-10,21.5c-9.7,3.4-16.8-2-19.3-4.9
		c3.9-0.2,9.6,0.2,12.7-4c1.7-2.3,2.3-6.2,1.3-12.4L22.5,73C21.8,70.2,19.6,68.5,17.7,67.1L17.7,67.1z"/>
	<path class="st2" d="M14.5,65.4l24.7-8c-1.4,1.6-1.7,7.4-1.1,10.5l8.5,43.1c1.1,8,0.3,16.7-9.8,22c-9.8,3.6-17-1.8-19.6-4.8
		c3.9-0.3,9.8,0.1,12.8-4.2c1.7-2.4,2.3-6.3,1.1-12.7l-11.8-40C18.7,68.6,16.5,66.9,14.5,65.4L14.5,65.4z"/>
	<path class="st3" d="M9.2,92.8c0,0,71.9-45.1,182.2-10.9l-18.5,57.9c0,0-65-23.6-146-1.6L9.2,92.8L9.2,92.8z"/>
	<path class="st0" d="M160.7,120.1l-10.9-2.4l-0.7,3l4.4,1l-6.5,5.4l-0.1,0.5l11.5,2.6l0.7-3.1l-4.8-1.1l6.3-5.2L160.7,120.1
		L160.7,120.1z M147.1,117.5l-11.4-1.5l-0.4,3l4.5,0.6l-6.6,6.3l12.4,1.7l0.4-3.1l-5-0.7l6-5.7L147.1,117.5L147.1,117.5z M127.4,125
		l4.5,0.5l1.1-9.9l-4.5-0.5L127.4,125L127.4,125z M122,114.5l-0.2,0l-5.3-0.2l-0.4,10l4.5,0.2l0.1-2.9l1,0l0.1-2.7l-0.3,0.1l-0.7,0
		l0.1-1.7l0.7,0l0.3,0L122,114.5L122,114.5z M93.5,123.6l8.3-0.1l0-3.1l-4,0l-0.1-6.5l-4.3,0L93.5,123.6L93.5,123.6z M103,123.6
		l8.7,0.3l0.1-2.7l-4.2-0.2l0-1.1l3.7,0.1l0.1-2.5l-3.7-0.1l0-1l4.1,0.2l0.1-2.8l-8.6-0.3L103,123.6L103,123.6z M61.7,121.3l0.2,0
		c0,0.3,0.2,0.7,0.3,1.2l0.1,0.2l1.1,2.7l3.3-0.4l2-8.7l-3.7,0.5l-0.4,3.8c0,0.3-0.1,0.7,0,0.9c0,0.3,0,0.5,0,0.8l-0.1,0
		c0-0.3-0.2-0.8-0.4-1.4l-1.5-3.8l-2.6,0.3l-0.5,4.1c-0.1,0.6-0.1,1,0,1.4l-0.1,0c0-0.3-0.1-0.5-0.2-0.8c0-0.2-0.1-0.6-0.2-0.9
		l-1.3-3.6l-3.7,0.5l4.1,7.9l3.3-0.4l0.4-2.9l0-0.2C61.7,122,61.7,121.5,61.7,121.3L61.7,121.3z M86.6,113.9c-0.8,0-1.5,0.2-2.2,0.5
		c-0.6,0.2-1.3,0.6-1.8,1.1c-0.5,0.5-0.9,1.1-1.1,1.7c-0.2,0.6-0.3,1.3-0.3,2c0,0.7,0.2,1.4,0.5,2c0.3,0.6,0.7,1.1,1.2,1.6
		c0.5,0.4,1.2,0.7,1.9,1c0.7,0.2,1.4,0.3,2.2,0.3c0.8,0,1.5-0.2,2.2-0.5c0.7-0.3,1.3-0.6,1.8-1.2c0.5-0.5,0.9-1.1,1.2-1.7
		c0.2-0.6,0.3-1.3,0.3-2c0-0.7-0.2-1.3-0.5-2c-0.3-0.6-0.8-1.1-1.3-1.6c-0.5-0.4-1.1-0.8-1.9-0.9C88.2,113.9,87.4,113.8,86.6,113.9
		L86.6,113.9z M70,124.6l4.1-0.3l-0.2-3.1l2.4-0.2l0.2,3.1l4.1-0.3l-0.6-8.8l-4.1,0.3l0.2,3l-2.4,0.2l-0.2-3l-4.1,0.3L70,124.6
		L70,124.6z M66.7,76.4c1.1,0.4,3,1.7,3.1,3.9l1.8,19.3c0,1.4,0,2.9-0.9,3.5l11.9-1.2c-1.1-0.8-2.3-2.6-2.4-3.7l-0.7-13.4
		c0-1.9,1.5-4.5,3-4.5c1.4,0.1,3.3,1.3,3.4,3.5L86.9,98c-0.2,2.1-0.7,3-1.4,3.7c4.2-0.3,8.1-0.5,12.3-0.8c-1-0.4-1.5-3-1.8-4.2
		l-0.7-14c-0.3-2,1.3-2.6,2.7-2.7c1.4-0.1,3.1,0.5,3.2,2.4l0.2,15c-0.2,1.5-0.3,2.6-1.3,3.4c4.3-0.3,8.4-0.1,13.4-0.4
		c-1.4-0.8-1.5-2.2-1.6-4l0.9-17.6c-0.6-4.2-7.3-7.4-10.5-7.3c-3.1,0-8.4,2.3-10.5,5c-2.4-2.4-4.4-3.2-6.9-3.1
		c-2.9,0.2-5.1,1.8-6.6,4.3L78,74.1c-0.5,0.5-1,0.8-1.7,0.9L66.7,76.4L66.7,76.4z M132.7,73c1.1,0.7,1.8,2.2,1.4,4.5l-1.6,20.6
		c-0.7,2.2-1.1,3.3-2.2,3.6l13.9,1.6c-1-1-1.7-3.8-1.5-5l1.9-14.1c0.2-2.6,3.5-4,5.1-3.7c1.6,0.3,3.5,1.6,3.2,4l-2,16
		c-0.6,2.1-1.4,2.7-2.4,3.3c4.7,0.6,8.6,1.1,13.4,1.8c-1-0.7-1.6-1.6-1.7-3l3.5-17.9c0.6-5.5-3-9.9-9.1-11.2
		c-3.3-0.4-7.7,0.2-9.9,2.5l0.6-4.5c-0.6,0.5-2.6,1.7-3.4,1.6L132.7,73L132.7,73z M113.8,73.3c1.1,0.5,2.7,4.6,2.7,6.8l-0.2,17.1
		c-0.4,2.1-1,3.4-2,3.8l13.5,0.4c-1-0.8-1.6-3-1.7-4.1l2-24.6c-0.6,0.5-2.7,1.3-3.4,1.2L113.8,73.3L113.8,73.3z M48.7,78.6
		c1.2,0.4,3.4,4,3.7,6.2l2.6,16.6c-0.1,2.1-0.9,3.2-1.8,3.8l13.5-2c-1.1-0.7-2-2.2-2.2-3.3l-2.1-24.2c-0.5,0.6-2.4,1.7-3.1,1.8
		L48.7,78.6L48.7,78.6z M167.5,76.4c1.1,0.8,2.2,5.5,1.8,7.8l-3.1,18.5c-0.8,2.2-2.1,3.1-3.2,3.4l14.5,3.1c-0.9-1.1-0.8-3.5-0.6-4.7
		l6.3-26.4c-0.8,0.5-3.2,0.9-3.9,0.8L167.5,76.4L167.5,76.4z M11.8,87.7c0,0,65.1-45.1,176.4-10.9l-15.1,54.1l-1.2-8.2l-2.7-0.7
		l-0.8,3.2c-0.1,0.3-0.2,0.6-0.2,1c0,0.3,0,0.8,0,1.5l0.1,1.3l-1-0.3l-1-0.3l0.7-1.1c0.3-0.6,0.6-1,0.8-1.2c0.2-0.3,0.3-0.6,0.4-0.9
		l0.9-3.2l-2.5-0.7l-6.8,8.2l-0.3,1.1l4.5,1.3l0.8-1.2l1.8,0.5l1.8,0.5l0,1.4l3.7,1l-0.4,1.5c0,0-56-24.2-144-0.1L11.8,87.7
		L11.8,87.7z M87,120.7c-0.5,0-1-0.1-1.3-0.4c-0.3-0.3-0.5-0.7-0.5-1.3c0-0.5,0.1-1,0.4-1.3c0.3-0.3,0.8-0.5,1.3-0.6
		c0.5,0,1,0.2,1.3,0.5c0.3,0.4,0.5,0.8,0.5,1.3c0,0.6-0.1,1-0.4,1.3C87.9,120.6,87.5,120.7,87,120.7L87,120.7z"/>
	<path class="st4" d="M15.2,118.5c0,0,74.7-26.6,167.9-3.7l-3.7,7.1c0,0-77.2-26.8-161.4,0.5L15.2,118.5L15.2,118.5z"/>
	<path class="st5" d="M18.1,66.9l24.6-7.6c-1.4,1.6-1.8,7.3-1.2,10.3l7.8,42.5c1,7.9,0.1,16.4-10,21.5c-9.7,3.4-16.8-2-19.3-4.9
		c3.9-0.2,9.6,0.2,12.7-4c1.7-2.3,2.3-6.2,1.3-12.4L22.8,72.8C22.1,70.1,20,68.3,18.1,66.9L18.1,66.9z"/>
	<path class="st3" d="M121.7,121.7l0.1-2.7c0.3,0,0.5-0.1,0.7-0.1c0.2-0.1,0.3-0.4,0.3-0.6c0-0.3-0.1-0.5-0.3-0.6
		c-0.2-0.2-0.4-0.2-0.7-0.3l0.1-2.8c1.8,0.1,3.1,0.4,3.9,1.1c0.8,0.6,1.2,1.6,1.2,2.8c0,1.2-0.5,2.1-1.3,2.6c-0.8,0.5-2,0.8-3.7,0.7
		L121.7,121.7L121.7,121.7z"/>
	<path class="st3" d="M113.8,73.3l10.9,0.6c0.7,0,2.8-0.7,3.4-1.2l-2,24.6c0.1,1.1,0.7,3.3,1.7,4.1l-13.5-0.4c0.9-0.4,1.6-1.7,2-3.8
		l0.2-17.1C116.5,77.9,114.9,73.8,113.8,73.3L113.8,73.3z"/>
	<path class="st3" d="M62.7,65.4c0.7,3.5-2.6,7.1-7.4,8c-4.8,0.9-9.2-1.1-9.9-4.6c-0.7-3.5,2.6-7.1,7.4-8
		C57.6,59.9,62,61.9,62.7,65.4L62.7,65.4z"/>
	<path class="st3" d="M131.5,63.8c-0.2,4.2-4.8,7.4-10.3,7.2c-5.5-0.2-9.8-3.9-9.6-8.1c0.2-4.2,4.8-7.4,10.3-7.2
		C127.4,56,131.7,59.6,131.5,63.8L131.5,63.8z"/>
	<path class="st6" d="M131.5,63.8c-0.2,4.2-4.8,7.4-10.3,7.2c-5.5-0.2-9.8-3.9-9.6-8.1c0.2-4.2,4.8-7.4,10.3-7.2
		C127.4,56,131.7,59.6,131.5,63.8L131.5,63.8z"/>
	<path class="st3" d="M187.9,69.4c-0.8,4.3-5.9,7-11.5,6c-5.6-1-9.4-5.3-8.7-9.6c0.8-4.3,5.9-7,11.5-6
		C184.9,60.8,188.7,65.1,187.9,69.4L187.9,69.4z"/>
	<path class="st7" d="M16.1,116.3c0,0,72.4-26.3,165.6-3.4l-2.9,5.9c0,0-75.4-26-159.6,1.3L16.1,116.3L16.1,116.3z"/>
	<path class="st8" d="M170,120.6l-2.7-0.7l-2.5-0.7l-7.5,9.3l0.5,0.1l4.6,1.2l0.8-1.2l1.8,0.5l1.8,0.5l0.1,1.4l5.1,1.4L170,120.6
		L170,120.6z M165.5,126.7l-1-0.3l0.7-1.1c0.4-0.6,0.6-0.9,0.8-1.2c0.1-0.2,0.2-0.3,0.2-0.4c0,0.2,0,0.3,0,0.5c0,0.3,0,0.8,0.1,1.5
		l0.1,1.3L165.5,126.7L165.5,126.7z"/>
	<polygon class="st8" points="158.6,118.1 158.5,118.8 152.2,124.1 157.1,125.1 156.4,128.2 144.8,125.8 144.9,125.2 151.4,119.7 
		147,118.8 147.6,115.8 158.6,118.1 	"/>
	<polygon class="st8" points="144.9,115.6 144.8,116.2 138.9,122 143.9,122.6 143.5,125.7 131,124.1 137.6,117.8 133.1,117.2 
		133.5,114.2 144.9,115.6 	"/>
	<polygon class="st8" points="125.2,123.4 126.1,113.5 130.6,113.9 129.7,123.8 125.2,123.4 	"/>
	<path class="st8" d="M123.6,114c-0.8-0.6-2.2-0.9-4-1l-0.2,0l-5.4-0.1l-0.3,10l4.5,0.1l0.1-2.9l1,0l0.4,0c1.7,0,2.9-0.2,3.7-0.8
		c0.9-0.5,1.3-1.4,1.3-2.6C124.9,115.6,124.5,114.7,123.6,114L123.6,114z M120.3,117.3c-0.1,0.1-0.4,0.2-0.7,0.2c-0.1,0-0.3,0-0.4,0
		l-0.7,0l0-1.7l0.7,0l0.3,0v0c0.2,0,0.5,0.1,0.7,0.2c0.2,0.2,0.3,0.3,0.3,0.6C120.6,116.9,120.5,117.1,120.3,117.3L120.3,117.3z"/>
	<polygon class="st8" points="91.2,122.4 91,112.9 95.3,112.8 95.4,119.3 99.5,119.2 99.5,122.2 91.2,122.4 	"/>
	<polygon class="st8" points="100.7,122.3 101,112.2 109.6,112.4 109.6,115.2 105.4,115.1 105.4,116.1 109.1,116.2 109.1,118.7 
		105.3,118.6 105.3,119.7 109.5,119.8 109.5,122.5 100.7,122.3 	"/>
	<path class="st8" d="M90,117.5c0-0.7-0.2-1.3-0.5-2c-0.4-0.6-0.8-1.1-1.3-1.5c-0.5-0.4-1.2-0.7-1.9-0.9c-0.6-0.2-1.4-0.3-2.1-0.3
		l0,0c-0.8,0-1.5,0.2-2.2,0.6c-0.6,0.3-1.3,0.7-1.8,1.1c-0.5,0.5-0.9,1.1-1.1,1.7c-0.2,0.6-0.3,1.3-0.3,2c0,0.7,0.2,1.4,0.5,2
		c0.3,0.6,0.7,1.1,1.3,1.5c0.5,0.4,1.2,0.7,1.9,1c0.7,0.2,1.4,0.3,2.1,0.2l0,0c0,0,0,0,0.1,0c0,0,0,0,0,0l0,0
		c0.7-0.1,1.4-0.2,2.1-0.5c0.7-0.3,1.3-0.7,1.8-1.2c0.5-0.5,0.8-1.1,1.1-1.7C89.9,118.9,90,118.2,90,117.5L90,117.5z M85.7,119
		c-0.3,0.4-0.7,0.5-1.2,0.6c-0.5,0-1-0.1-1.3-0.4c-0.3-0.3-0.5-0.7-0.5-1.3c0-0.5,0.1-1,0.4-1.3c0.3-0.3,0.7-0.5,1.2-0.6
		c0.5,0,1,0.2,1.3,0.4c0.4,0.3,0.5,0.8,0.5,1.3C86.1,118.3,86,118.7,85.7,119L85.7,119z"/>
	<polygon class="st8" points="67.6,123.6 66.9,114.8 71.1,114.5 71.3,117.5 73.7,117.3 73.5,114.3 77.6,114 78.3,122.8 74.2,123.1 
		73.9,120 71.5,120.2 71.7,123.3 67.6,123.6 	"/>
	<path class="st3" d="M18.1,66.9l24.6-7.6c-1.4,1.6-1.8,7.3-1.2,10.3l7.8,42.5c1,7.9,0.1,16.4-10,21.5c-9.7,3.4-16.8-2-19.3-4.9
		c3.9-0.2,9.6,0.2,12.7-4c1.7-2.3,2.3-6.2,1.3-12.4L22.8,72.8C22.1,70.1,20,68.3,18.1,66.9L18.1,66.9z"/>
	<path class="st9" d="M131.2,71.5l9.3,0.1c0.8,0.1,2.7-1.2,3.3-1.7l-0.6,4.5c2.1-2.3,6.6-3,9.9-2.6c6.1,1.3,9.8,5.6,9.2,11.1
		l-3.4,17.9c0.2,1.3,0.7,2.3,1.7,2.9c-4.8-0.6-8.7-1.1-13.4-1.6c1-0.6,1.8-1.2,2.4-3.3l1.9-16c0.3-2.4-1.7-3.7-3.2-4
		c-1.6-0.4-4.9,1.2-5.1,3.7l-1.8,14.2c-0.1,1.2,0.5,3.9,1.5,5l-13.9-1.5c1.1-0.4,1.5-1.5,2.1-3.6l1.4-20.6
		C133.1,73.7,132.4,72.2,131.2,71.5L131.2,71.5z"/>
	<path class="st9" d="M111.9,71.4l10.9,0.5c0.7,0,2.8-0.7,3.4-1.3l-1.8,24.7c0.1,1.1,0.8,3.3,1.7,4.1l-13.5-0.3
		c0.9-0.4,1.5-1.7,1.9-3.8l0.1-17.1C114.7,76,113,72,111.9,71.4L111.9,71.4z"/>
	<path class="st9" d="M46.3,77.4l10.7-1.3c0.7-0.1,2.6-1.2,3.1-1.8l2.3,24.2c0.2,1.1,1.2,2.6,2.3,3.3L51,103.9
		c0.8-0.6,1.7-1.7,1.7-3.8L50,83.5C49.7,81.4,47.5,77.7,46.3,77.4L46.3,77.4z"/>
	<path class="st9" d="M60.5,64.5c0.7,3.5-2.5,7.1-7.3,8.1c-4.7,1-9.2-1-9.9-4.5c-0.7-3.5,2.5-7.1,7.3-8.1
		C55.3,59.1,59.8,61.1,60.5,64.5L60.5,64.5z"/>
	<path class="st9" d="M129.1,61.6c-0.2,4.2-4.7,7.5-10.2,7.3c-5.5-0.2-9.8-3.8-9.7-8c0.1-4.2,4.7-7.5,10.2-7.3
		C125,53.8,129.3,57.4,129.1,61.6L129.1,61.6z"/>
	<path class="st9" d="M165.2,73.9l11.8,2.4c0.7,0.1,3.2-0.3,3.9-0.8l-6.1,26.5c-0.1,1.2-0.2,3.6,0.7,4.7l-14.6-2.9
		c1.1-0.3,2.4-1.2,3.2-3.4l3-18.6C167.4,79.3,166.4,74.7,165.2,73.9L165.2,73.9z"/>
	<path class="st9" d="M185.6,66.7c-0.7,4.3-5.8,7.1-11.4,6.1c-5.6-1-9.5-5.2-8.7-9.6c0.7-4.3,5.8-7.1,11.4-6.1
		C182.5,58.1,186.4,62.4,185.6,66.7L185.6,66.7z"/>
	<path class="st10" d="M99.9,98.8c4.2-0.1,7.7-0.2,11.9-0.3c-1-0.5-1.6-1.3-1.9-2.4l0.6-16.6c-0.2-5-4-8.5-9.5-8.8
		c-3.1-0.1-8.3,0.2-11.3,3.3c-1.7-1.2-3.8-1.8-6.2-1.8c-2.9,0.2-6.7,1.6-8.1,4l-0.3-4.2c-0.5,0.5-1.9,2-2.6,2.1l-8.1,1.5
		c1.1,0.4,2,1.7,2,3.8l2.3,18.7c-0.2,2.1-0.4,3.1-1.2,3.6l12.3-1.1c-1-0.7-2.1-3.1-2.2-4.2l-0.9-13c-0.2-2.3,2.3-4.2,3.8-4.2
		c1.1,0,2.6,0.5,3.2,1.8c0,0.1,0,0.2,0,0.3l1,9.9l0.4,5.4c-0.1,0.9-0.2,1.6-0.4,2.2c-0.3,0.6-0.6,0.9-1,1.3
		c4.2-0.3,7.6-0.4,11.8-0.7c0,0,0,0,0,0l0.8,0c-1-0.8-2.1-3.5-2.1-4.6l-0.3-13c-0.1-2.3,2.5-4.1,4-4c1.4,0,3.3,1,3.4,3.2l0.7,14.9
		C101.5,97.6,100.7,98.4,99.9,98.8L99.9,98.8z"/>
	<path class="st9" d="M14.8,65.3l24.7-8c-1.4,1.6-1.7,7.4-1.1,10.5l8.5,43.1c1.1,8,0.3,16.7-9.8,22c-9.8,3.6-17-1.8-19.6-4.8
		c3.9-0.3,9.8,0.1,12.8-4.2c1.7-2.4,2.3-6.3,1.1-12.7l-11.8-40C19,68.4,16.8,66.7,14.8,65.3L14.8,65.3z"/>
	<path class="st8" d="M59.2,120.4c0,0.3,0,0.7,0,1.2l0,0.2l-0.4,2.9l-3.3,0.5l-4.2-7.9l3.8-0.5l1.4,3.6c0.1,0.3,0.2,0.6,0.3,0.9
		c0.1,0.3,0.1,0.5,0.2,0.8l0.1,0c0-0.3,0-0.8,0-1.4l0.1-0.1l0.4-4.1l2.6-0.4l1.5,3.8l0.1,0.1c0.2,0.5,0.3,1,0.4,1.3l0.1,0
		c0-0.3-0.1-0.5,0-0.8c0-0.3,0-0.6,0-0.9l0.3-3.8l3.8-0.5l-1.9,8.8l-3.3,0.5l-1.2-2.7l-0.1-0.2c-0.2-0.5-0.3-0.9-0.4-1.2L59.2,120.4
		L59.2,120.4z"/>
</g>
</svg>
